<svg width="16" height="16" viewBox="0 0 16 16" fill="none" xmlns="http://www.w3.org/2000/svg">
  <path d="M8 1.75C4.54822 1.75 1.75 4.54822 1.75 8C1.75 11.4518 4.54822 14.25 8 14.25C11.4518 14.25 14.25 11.4518 14.25 8C14.25 4.54822 11.4518 1.75 8 1.75ZM8 3.25C10.6234 3.25 12.75 5.37665 12.75 8C12.75 10.6234 10.6234 12.75 8 12.75C5.37665 12.75 3.25 10.6234 3.25 8C3.25 5.37665 5.37665 3.25 8 3.25Z" fill="#111111"/>
  <circle cx="8" cy="8" r="1.75" fill="#111111"/>
  <path d="M8 1.25V4" stroke="#111111" stroke-width="1.5" stroke-linecap="round"/>
  <path d="M8 12V14.75" stroke="#111111" stroke-width="1.5" stroke-linecap="round"/>
  <path d="M1.25 8H4" stroke="#111111" stroke-width="1.5" stroke-linecap="round"/>
  <path d="M12 8H14.75" stroke="#111111" stroke-width="1.5" stroke-linecap="round"/>
</svg>
