<svg width="24" height="24" viewBox="0 0 24 24" fill="none" xmlns="http://www.w3.org/2000/svg">
  <path d="M8 8 C8 6.9 8.9 6 10 6 L18 6 C19.1 6 20 6.9 20 8 L20 18 C20 19.1 19.1 20 18 20 L10 20 C8.9 20 8 19.1 8 18 L8 8 Z M9.5 8 C9.5 7.72 9.72 7.5 10 7.5 L18 7.5 C18.28 7.5 18.5 7.72 18.5 8 L18.5 18 C18.5 18.28 18.28 18.5 18 18.5 L10 18.5 C9.72 18.5 9.5 18.28 9.5 18 L9.5 8 Z M6 4 C4.9 4 4 4.9 4 6 L4 16 C4 16.55 4.45 17 5 17 L5 17 C5.55 17 6 16.55 6 16 L6 6 C6 5.72 6.22 5.5 6.5 5.5 L14 5.5 C14.55 5.5 15 5.05 15 4.5 L15 4.5 C15 3.95 14.55 3.5 14 3.5 L6 4 Z" fill="currentColor" fill-rule="evenodd" clip-rule="evenodd"/>
</svg>
