<svg width="24" height="24" viewBox="0 0 24 24" fill="none"
  xmlns="http://www.w3.org/2000/svg">
  <path d="M 19.49 8.26 L 19.08 8.26 L 13.85 13.49 L 13.85 13.9 L 14.05 14.1 L 14.56 14.1 L 19.69 8.97 L 19.69 8.46 Z M 16.51 5.28 L 16.1 5.28 L 10.87 10.51 L 10.87 10.92 L 11.08 11.13 L 11.59 11.13 L 16.62 6.1 L 16.72 5.49 Z M 23.69 6.62 L 18.36 1.28 L 17.95 1.08 L 16.72 1.18 L 4.92 10.82 L 4.72 11.44 L 4.92 12.46 L 4.41 12.87 L 4 13.59 L 4.1 16.36 L 2.77 17.9 L 2.77 18.41 L 3.08 18.72 L 0.1 21.69 L 0.1 22.31 L 0.72 22.51 L 4.62 22.82 L 5.95 21.59 L 6.26 21.9 L 6.77 21.9 L 8.21 20.56 L 10.97 20.67 L 11.59 20.36 L 12.31 19.64 L 12.62 19.85 L 13.54 19.85 L 13.95 19.64 L 23.69 8.26 L 23.9 7.64 Z M 5.64 13.08 L 11.59 19.03 L 10.97 19.64 L 8.21 19.64 L 7.38 19.95 L 6.46 20.77 L 3.9 18.21 L 4.92 16.77 L 4.92 13.79 Z M 17.54 1.9 L 22.97 7.23 L 22.97 7.64 L 13.33 18.92 L 12.82 18.92 L 5.74 11.85 L 5.64 11.44 L 16 2.92 Z" fill="currentColor" fill-rule="evenodd" clip-rule="evenodd"/>
</svg>

