<svg width="24" height="24" viewBox="0 0 24 24" fill="none" xmlns="http://www.w3.org/2000/svg">
  <path d="M3 3 L3 9 L9 9 L9 3 L3 3 Z M4.5 4.5 L7.5 4.5 L7.5 7.5 L4.5 7.5 L4.5 4.5 Z M15 3 L15 9 L21 9 L21 3 L15 3 Z M16.5 4.5 L19.5 4.5 L19.5 7.5 L16.5 7.5 L16.5 4.5 Z M9 9 L9 15 L15 15 L15 9 L9 9 Z M10.5 10.5 L13.5 10.5 L13.5 13.5 L10.5 13.5 L10.5 10.5 Z M3 15 L3 21 L9 21 L9 15 L3 15 Z M4.5 16.5 L7.5 16.5 L7.5 19.5 L4.5 19.5 L4.5 16.5 Z M15 15 L15 21 L21 21 L21 15 L15 15 Z M16.5 16.5 L19.5 16.5 L19.5 19.5 L16.5 19.5 L16.5 16.5 Z" fill="currentColor" fill-rule="evenodd" clip-rule="evenodd"/>
</svg>
