<svg width="24" height="24" viewBox="0 0 24 24" fill="none" xmlns="http://www.w3.org/2000/svg">
  <path d="M3 5 C3 3.9 3.9 3 5 3 L7 3 L7 4.5 L5 4.5 C4.72 4.5 4.5 4.72 4.5 5 L4.5 7 L3 7 L3 5 Z M17 3 L19 3 C20.1 3 21 3.9 21 5 L21 7 L19.5 7 L19.5 5 C19.5 4.72 19.28 4.5 19 4.5 L17 4.5 L17 3 Z M3 17 L3 19 C3 20.1 3.9 21 5 21 L7 21 L7 19.5 L5 19.5 C4.72 19.5 4.5 19.28 4.5 19 L4.5 17 L3 17 Z M19.5 17 L19.5 19 C19.5 19.28 19.28 19.5 19 19.5 L17 19.5 L17 21 L19 21 C20.1 21 21 20.1 21 19 L21 17 L19.5 17 Z M7 8 L15 8 L15 9.5 L7 9.5 L7 8 Z M7 11.25 L17 11.25 L17 12.75 L7 12.75 L7 11.25 Z M7 14.5 L13 14.5 L13 16 L7 16 L7 14.5 Z" fill="currentColor" fill-rule="evenodd" clip-rule="evenodd"/>
</svg>
