<svg width="24" height="24" viewBox="0 0 24 24" fill="none" xmlns="http://www.w3.org/2000/svg">
  <path d="M12 17 L12 22 L13.5 22 L13.5 17.5 L12 17 Z M8 2 C6.9 2 6 2.9 6 4 C6 5.1 6.9 6 8 6 L9 6 L9 11 C9 11.55 8.78 12.05 8.41 12.41 L6.22 14.55 C5.83 14.94 5.6 15.47 5.6 16 L5.6 17 L18.4 17 L18.4 16 C18.4 15.47 18.17 14.94 17.78 14.55 L15.59 12.41 C15.22 12.05 15 11.55 15 11 L15 6 L16 6 C17.1 6 18 5.1 18 4 C18 2.9 17.1 2 16 2 L8 2 Z M8 3.5 L16 3.5 C16.28 3.5 16.5 3.72 16.5 4 C16.5 4.28 16.28 4.5 16 4.5 L15 4.5 C14.45 4.5 14 4.95 14 5.5 L14 11 C14 11.93 14.37 12.82 15.03 13.47 L16.4 14.84 L16.4 15.5 L7.6 15.5 L7.6 14.84 L8.97 13.47 C9.63 12.82 10 11.93 10 11 L10 5.5 C10 4.95 9.55 4.5 9 4.5 L8 4.5 C7.72 4.5 7.5 4.28 7.5 4 C7.5 3.72 7.72 3.5 8 3.5 Z" fill="currentColor" fill-rule="evenodd" clip-rule="evenodd"/>
</svg>
