<svg width="24" height="24" viewBox="0 0 24 24" fill="none" xmlns="http://www.w3.org/2000/svg">
  <path d="M4 17 L11.25 10.5 L12.75 10.5 L20 17 L19.25 18 L12 12.25 L4.75 18 L4 17 Z M6 15 C7.1 15 8 15.9 8 17 C8 18.1 7.1 19 6 19 C4.9 19 4 18.1 4 17 C4 15.9 4.9 15 6 15 Z M12 6 C13.1 6 14 6.9 14 8 C14 9.1 13.1 10 12 10 C10.9 10 10 9.1 10 8 C10 6.9 10.9 6 12 6 Z M18 15 C19.1 15 20 15.9 20 17 C20 18.1 19.1 19 18 19 C16.9 19 16 18.1 16 17 C16 15.9 16.9 15 18 15 Z" fill="currentColor" fill-rule="evenodd" clip-rule="evenodd"/>
</svg>
