<svg width="24" height="24" viewBox="0 0 24 24" fill="none" xmlns="http://www.w3.org/2000/svg">
  <path d="M5 3 C3.9 3 3 3.9 3 5 L3 19 C3 20.1 3.9 21 5 21 L19 21 C20.1 21 21 20.1 21 19 L21 8 L16 3 L5 3 Z M5 4.5 L15 4.5 L15 9 L19.5 9 L19.5 19 C19.5 19.28 19.28 19.5 19 19.5 L5 19.5 C4.72 19.5 4.5 19.28 4.5 19 L4.5 5 C4.5 4.72 4.72 4.5 5 4.5 Z M7 12 L7 20 L17 20 L17 12 L7 12 Z M8.5 13.5 L15.5 13.5 L15.5 18.5 L8.5 18.5 L8.5 13.5 Z M7 4 L7 8 L13 8 L13 4 L7 4 Z M8.5 5.5 L11.5 5.5 L11.5 6.5 L8.5 6.5 L8.5 5.5 Z" fill="currentColor" fill-rule="evenodd" clip-rule="evenodd"/>
</svg>
