<svg width="24" height="24" viewBox="0 0 24 24" fill="none" xmlns="http://www.w3.org/2000/svg">
  <path d="M7 3 C9.21 3 11 4.79 11 7 C11 9.21 9.21 11 7 11 C4.79 11 3 9.21 3 7 C3 4.79 4.79 3 7 3 Z M7 4.5 C5.62 4.5 4.5 5.62 4.5 7 C4.5 8.38 5.62 9.5 7 9.5 C8.38 9.5 9.5 8.38 9.5 7 C9.5 5.62 8.38 4.5 7 4.5 Z M9 10 C9 9.45 9.45 9 10 9 L20 9 C20.55 9 21 9.45 21 10 L21 20 C21 20.55 20.55 21 20 21 L10 21 C9.45 21 9 20.55 9 20 L9 10 Z M10.5 10.5 L10.5 19.5 L19.5 19.5 L19.5 10.5 L10.5 10.5 Z" fill="currentColor" fill-rule="evenodd" clip-rule="evenodd"/>
</svg>
