<svg width="24" height="24" viewBox="0 0 24 24" fill="none" xmlns="http://www.w3.org/2000/svg">
  <path d="M3 7 C3 6.45 3.45 6 4 6 L14 6 C14.55 6 15 6.45 15 7 L15 17 C15 17.55 14.55 18 14 18 L4 18 C3.45 18 3 17.55 3 17 L3 7 Z M4.5 7.5 L4.5 16.5 L13.5 16.5 L13.5 7.5 L4.5 7.5 Z M16 4 C19.31 4 22 6.69 22 10 C22 13.31 19.31 16 16 16 C15.17 16 14.38 15.83 13.66 15.53 L13.66 14 C14.35 14.32 15.15 14.5 16 14.5 C18.49 14.5 20.5 12.49 20.5 10 C20.5 7.51 18.49 5.5 16 5.5 C13.51 5.5 11.5 7.51 11.5 10 C11.5 10.17 11.51 10.34 11.53 10.5 L10.03 10.5 C10.01 10.34 10 10.17 10 10 C10 6.69 12.69 4 16 4 Z" fill="currentColor" fill-rule="evenodd" clip-rule="evenodd"/>
</svg>
